<svg xmlns="http://www.w3.org/2000/svg" viewBox="0 0 512 512"><defs><style>.a{fill:#fff;}.b{fill:#bbb;}.c{fill:#ffd600;}.c,.d,.f{fill-rule:evenodd;}.d{fill:#d7282f;}.e{fill:#0033a1;}.f{fill:#f5e202;}</style></defs><title>favicon</title><path class="a" d="M460.39,256C460.39,368.65,368.87,460,256,460S51.59,368.65,51.59,256,143.09,52,256,52,460.39,143.37,460.39,256Z"/><path class="b" d="M256,1.65C115.49,1.65,1.62,115.52,1.62,256S115.49,510.38,256,510.38,510.37,396.5,510.37,256,396.47,1.65,256,1.65Zm0,456.7c-111.74,0-202.32-90.6-202.32-202.32S144.25,53.7,256,53.7,458.3,144.27,458.3,256,367.73,458.35,256,458.35Z"/><path d="M256,512C114.82,512,0,397.18,0,256S114.82,0,256,0,512,114.85,512,256,397.15,512,256,512ZM256,3.28C116.62,3.28,3.25,116.65,3.25,256S116.62,508.75,256,508.75,508.74,395.37,508.74,256,395.34,3.28,256,3.28ZM256,460C143.51,460,52.05,368.47,52.05,256S143.51,52,256,52s204,91.5,204,204S368.44,460,256,460Zm0-404.65C145.32,55.32,55.3,145.35,55.3,256s90,200.66,200.69,200.66,200.67-90,200.67-200.66S366.64,55.32,256,55.32Z"/><path d="M36.5,305.15A6.26,6.26,0,0,1,38.73,309l.83,3.39,5.93-1.45.83,3.4L29.9,318.4l-1.73-7.08a5.62,5.62,0,0,1,.3-4.2,5.2,5.2,0,0,1,3.58-2.42C34,304.23,35.47,304.37,36.5,305.15Zm-5.25,4.08a2.78,2.78,0,0,0-.11,1.94l.76,3.1,4.84-1.2L36,310a2.71,2.71,0,0,0-1-1.67,2.44,2.44,0,0,0-2.05-.17A2.22,2.22,0,0,0,31.25,309.23Z"/><path d="M38.66,283.45a7.34,7.34,0,0,1,2.78,5.17,7.52,7.52,0,0,1-1.13,5.81A9.13,9.13,0,0,1,33.8,298c-3.08.46-5.51-.05-7.3-1.51a8.82,8.82,0,0,1-1.65-11c1.29-1.92,3.46-3.09,6.53-3.55S36.81,282,38.66,283.45ZM36.45,286a7,7,0,0,0-4.55-.58,7,7,0,0,0-4.16,1.88,4.41,4.41,0,0,0,1,6.63,6.94,6.94,0,0,0,4.55.57,7,7,0,0,0,4.19-1.89,4.09,4.09,0,0,0,1-3.56A4,4,0,0,0,36.45,286Z"/><path d="M22.37,276l-.2-3.71L33.56,265l-11.77.64-.18-3.28,16.89-.94.19,3.53-11.6,7.54,12-.65.19,3.28Z"/><path d="M21.94,242.05l3,.1-.15,5,13.91.43-.09,3.55-13.93-.39-.15,5.07-3-.1Z"/><path d="M39.64,234.05l-.33,3.5L22.46,236l.34-3.5Z"/><path d="M23.64,224.82l1.87-11.92,2.93.48-1.33,8.45,3.85.59L32.11,215l2.91.45-1.15,7.42,7,1.1-.55,3.45Z"/><path d="M44.08,207l-.77,3.43L26.8,206.78l.74-3.45Z"/><path d="M31.43,194.92a7.12,7.12,0,0,1-.54-5.6c.81-2.7,2.28-4.39,4.42-5.14a6.29,6.29,0,0,1,3.38-.2l-1,3.37a4.92,4.92,0,0,0-2,.33,3.84,3.84,0,0,0-1.21,5.67,7.91,7.91,0,0,0,3.93,2.28,6.52,6.52,0,0,0,4.42.09,3.51,3.51,0,0,0,2.19-2.4,3.33,3.33,0,0,0-.38-3,5.48,5.48,0,0,0-1.65-1.4l1-3.38a7.85,7.85,0,0,1,3.67,3.52,6.68,6.68,0,0,1,.32,5.06,7.2,7.2,0,0,1-3.86,4.79,9.59,9.59,0,0,1-6.77.18C34.5,198.25,32.52,196.88,31.43,194.92Z"/><path d="M52.76,178.35l-1.22,3.3-15.85-5.9,1.21-3.28Z"/><path d="M41.67,160.88l1.64-3.65,17.88,1.49-1.57,3.5L56,161.83l-2.57,5.64L56.11,170l-1.51,3.36Zm9.5,4.54,1.77-3.95L46,160.68Z"/><path d="M53.67,137.25l1.89-3.05,8.82,5.49a5.59,5.59,0,0,0,2.39,1c1,.15,1.93-.41,2.68-1.62s.85-2.25.26-3.11a6.26,6.26,0,0,0-1.95-1.7l-8.82-5.5,1.91-3,8.83,5.5a8.55,8.55,0,0,1,3.11,3c1,1.84.74,4-.81,6.49s-3.38,3.67-5.48,3.6a8.88,8.88,0,0,1-4-1.52Z"/><path d="M65.39,119.18l2.24-3L81.09,118l-9.4-7.16,2-2.63,13.44,10.24L85,121.3l-13.72-1.77,9.56,7.25-2,2.62Z"/><path d="M93.64,111l-2.32,2.63L78.59,102.53l2.31-2.65Z"/><path d="M92.92,87.25l2.6-2.6,7.93,16L101.1,103,85,95.15l2.68-2.68,11.69,6.45Z"/><path d="M112,74.32l-6.83,5.81,2.29,2.72,6.3-5.3,1.88,2.25-6.25,5.3,2.8,3.32,7.15-6,2,2.33L111.52,93,100.59,80.05l9.47-8Z"/><path d="M125.42,61.34a4.1,4.1,0,0,1,2,.06,5.85,5.85,0,0,1,1.51.67,5.18,5.18,0,0,1,1.3,1.27,5.67,5.67,0,0,1,.85,2.31,3.45,3.45,0,0,1-.7,2.5,3,3,0,0,1,2.13.15,5.4,5.4,0,0,1,1.91,1.87l.66.93a7.09,7.09,0,0,0,1,1.22,1.42,1.42,0,0,0,1.08.43l.26.35-3.2,2.22a8.71,8.71,0,0,1-.71-.6,8.56,8.56,0,0,1-1-1.09l-.89-1.28a3.43,3.43,0,0,0-1.71-1.45,2.86,2.86,0,0,0-2,.72l-2.83,2L128.91,79l-2.81,2-9.74-13.84L123,62.53A7.41,7.41,0,0,1,125.42,61.34Zm-4.55,6.26,2.62,3.72,3.11-2.19a4.06,4.06,0,0,0,1.24-1.2,1.92,1.92,0,0,0-.27-2.13,2.17,2.17,0,0,0-2-1.15,3.64,3.64,0,0,0-1.51.7Z"/><path d="M142.21,64a3.52,3.52,0,0,0,1.43,1.18,3.78,3.78,0,0,0,3.13-.6,5.85,5.85,0,0,0,1.65-1.3,1.94,1.94,0,0,0,.35-2.45,1.5,1.5,0,0,0-1.3-.75,8,8,0,0,0-2.43.5l-1.79.58a12,12,0,0,1-3.85.73,4,4,0,0,1-3.3-2.33,4.72,4.72,0,0,1-.46-4.1,7.08,7.08,0,0,1,3.5-3.75,7.52,7.52,0,0,1,4.7-1.11,5,5,0,0,1,3.8,2.59l-2.94,1.7a2.4,2.4,0,0,0-2.26-1.21,4.4,4.4,0,0,0-2.05.68,4.07,4.07,0,0,0-1.64,1.6,1.67,1.67,0,0,0,0,1.75,1.49,1.49,0,0,0,1.38.78,13.77,13.77,0,0,0,2.3-.53l2.93-.9a7.47,7.47,0,0,1,3.14-.37,4.16,4.16,0,0,1,3.05,2.22,4.87,4.87,0,0,1,.37,4.23A7.77,7.77,0,0,1,148.34,67a8.45,8.45,0,0,1-5.29,1.33,5.11,5.11,0,0,1-3.76-2.65Z"/><path d="M162.11,59.2l-3.17,1.54-7.47-15.15,3.15-1.54Z"/><path d="M170.85,37.3a5.65,5.65,0,0,1,3.47.9,7.75,7.75,0,0,1,2.16,2.07,13.77,13.77,0,0,1,1.36,2.46,11.14,11.14,0,0,1,.9,5.82,6.08,6.08,0,0,1-4.05,5.07L168,56.38l-6.41-15.66L168.3,38A7.9,7.9,0,0,1,170.85,37.3Zm-5,4.84L170,52.38l3-1.25a3.57,3.57,0,0,0,2.29-3.63,9.07,9.07,0,0,0-.74-3.18,8.26,8.26,0,0,0-2.25-3.38,3.55,3.55,0,0,0-3.51,0Z"/><path d="M186.32,31.45l3.83-1.18,10.66,14.46-3.66,1.1-2.08-3-6,1.83L189,48.32l-3.51,1.07Zm2.84,10.12,4.15-1.24-4-5.76Z"/><path d="M212.3,25.24a5.64,5.64,0,0,1,3.27,1.51,7.7,7.7,0,0,1,1.73,2.45,13.28,13.28,0,0,1,.89,2.67,11.11,11.11,0,0,1-.18,5.88A6.12,6.12,0,0,1,213.1,42L206,43.45,202.52,26.9l7.14-1.47A9.4,9.4,0,0,1,212.3,25.24Zm-5.82,3.83,2.24,10.83,3.19-.67a3.53,3.53,0,0,0,2.93-3.13,8.56,8.56,0,0,0-.13-3.27,7.83,7.83,0,0,0-1.59-3.71c-.72-.79-1.87-1-3.43-.7Z"/><path d="M236.06,23.27a7.08,7.08,0,0,1,5.07-2.42c2.79-.18,4.92.6,6.34,2.37a6,6,0,0,1,1.36,3.08l-3.54.25a4.6,4.6,0,0,0-1-1.78,3.57,3.57,0,0,0-2.88-.93,3.52,3.52,0,0,0-2.86,1.76,7.53,7.53,0,0,0-.8,4.48,6.64,6.64,0,0,0,1.44,4.18,3.55,3.55,0,0,0,3,1.21,3.35,3.35,0,0,0,2.69-1.4,5.14,5.14,0,0,0,.73-2l3.5-.23a7.6,7.6,0,0,1-2,4.65,7,7,0,0,1-4.67,2.06,7.23,7.23,0,0,1-5.83-2,9.47,9.47,0,0,1-2.49-6.3C234,27.32,234.59,25,236.06,23.27Z"/><path d="M260.9,20.67l4,.1,5.57,17.05-3.81-.1-1-3.49-6.23-.16-1.23,3.45-3.7-.07Zm-.51,10.51,4.34.12-2-6.72Z"/><path d="M288,22.54l-.3,3-5-.54-1.4,13.86-3.54-.35,1.42-13.86L274,24.15l.31-3Z"/><path d="M304.44,41.1a7.44,7.44,0,0,1-5.82.9,7.31,7.31,0,0,1-5.05-3c-1.4-1.91-1.78-4.35-1.23-7.34s1.88-5.16,3.86-6.36a8.74,8.74,0,0,1,10.89,2.1c1.36,1.85,1.77,4.3,1.18,7.33S306.42,39.82,304.44,41.1Zm-1.67-3a7,7,0,0,0,2-4.08,6.91,6.91,0,0,0-.37-4.57,4.05,4.05,0,0,0-3-2.15,4,4,0,0,0-3.58.9,6.84,6.84,0,0,0-2.08,4.08,6.93,6.93,0,0,0,.41,4.58,4.38,4.38,0,0,0,6.57,1.24Zm4-17.7-4.06,2.71-2.32-.46,2.8-2.95Z"/><path d="M317,28.3l3.41.95L316.59,42.6l8.11,2.32-.83,2.93-11.53-3.3Z"/><path d="M332.27,50.84,329,49.65l5.69-15.93,3.32,1.2Z"/><path d="M346,39.87a7,7,0,0,1,5.61.16c2.58,1.14,4.1,2.82,4.53,5a6.05,6.05,0,0,1-.2,3.36L352.66,47a4.23,4.23,0,0,0-.07-2,3.77,3.77,0,0,0-5.46-1.9,7.52,7.52,0,0,0-2.77,3.57,6.58,6.58,0,0,0-.63,4.38,3.53,3.53,0,0,0,2.09,2.47,3.34,3.34,0,0,0,3,0,5.58,5.58,0,0,0,1.6-1.45l3.23,1.4a7.67,7.67,0,0,1-3.95,3.21,6.72,6.72,0,0,1-5.08-.36,7.15,7.15,0,0,1-4.26-4.39,9.6,9.6,0,0,1,.7-6.76C342.27,42.47,343.89,40.69,346,39.87Z"/><path d="M369.06,49l3.51,1.92-2.94,17.71-3.36-1.85.69-3.6-5.44-3-2.67,2.49-3.25-1.8Zm-5.3,9.1,3.81,2.08,1.34-6.86Z"/><path d="M400.79,69.58l4.06,3L394.71,86.14l-2.65-2L398.94,75c.19-.28.46-.63.82-1.11s.64-.82.84-1.1l-11.08,9.46-2.76-2.08,6-13.25c-.18.26-.45.62-.79,1.09s-.64.86-.84,1.11l-6.86,9.16-2.64-2L391.76,62.8l4.1,3.07-5.49,12.5Z"/><path d="M414.49,81l3,2.71-7,16.52-2.84-2.58,1.53-3.32-4.61-4.22-3.17,1.79-2.75-2.5Zm-7.26,7.61,3.19,2.94,2.92-6.38Z"/><path d="M433.09,100.27a5.55,5.55,0,0,1,.35,3.58,7.24,7.24,0,0,1-1.2,2.72,12.64,12.64,0,0,1-1.85,2.13,11,11,0,0,1-5.15,2.85,6.13,6.13,0,0,1-6.14-2.08l-4.91-5.4L426.7,92.7l4.91,5.38A9.07,9.07,0,0,1,433.09,100.27Zm-6.26-3-8.16,7.42,2.19,2.4A3.51,3.51,0,0,0,425,108a8.23,8.23,0,0,0,2.75-1.79,7.46,7.46,0,0,0,2.37-3.26c.33-1-.06-2.1-1.14-3.31Z"/><path d="M447.22,117.92a4.46,4.46,0,0,1,0,2,4.84,4.84,0,0,1-.61,1.51,4.75,4.75,0,0,1-1.24,1.35,5.26,5.26,0,0,1-2.24.93,3.38,3.38,0,0,1-2.54-.6,3.1,3.1,0,0,1-.07,2.12,5.65,5.65,0,0,1-1.81,2l-.91.69a9.36,9.36,0,0,0-1.2,1,1.4,1.4,0,0,0-.37,1.1l-.35.28-2.35-3.13c.23-.3.44-.56.6-.73a8.44,8.44,0,0,1,1.06-1l1.25-.94a3.4,3.4,0,0,0,1.38-1.75,2.85,2.85,0,0,0-.78-2L435,118l-5.29,4-2.09-2.74,13.52-10.2,4.86,6.44A8,8,0,0,1,447.22,117.92Zm-6.4-4.32-3.62,2.72,2.26,3.05a4.37,4.37,0,0,0,1.26,1.2,1.93,1.93,0,0,0,2.14-.35,2.18,2.18,0,0,0,1.07-2,3.69,3.69,0,0,0-.77-1.48Z"/><path d="M457.78,138.62,453.05,131l-3.06,1.9,4.36,7-2.5,1.58-4.36-7-3.69,2.3,5,7.95-2.57,1.6-6.8-10.88,14.36-8.94,6.57,10.52Z"/><path d="M472.8,161.65l1.67,3.62-12-.74-5.77,2.65L455.26,164l5.77-2.63,7.19-9.73,1.73,3.77-5.26,6.28Z"/><path d="M483.64,191.92l1.46,4.91-16.2,4.79-.94-3.14,11-3.28,1.33-.37c.58-.16,1-.31,1.31-.42l-14.51,1-1-3.3L478.76,185c-.3.11-.74.22-1.31.4s-1,.31-1.33.4l-10.95,3.28-.94-3.18,16.22-4.79,1.46,4.92L470,192.8Z"/><path d="M487.85,209.33l.75,3.94-15.48,9.08-.73-3.77,3.21-1.76-1.17-6.09-3.64-.47-.69-3.64Zm-10.38,1.79.83,4.23,6.12-3.35Z"/><path d="M488.94,238.73l-.89-8.91-3.61.38.86,8.17-2.94.3-.84-8.17-4.31.45.93,9.3-3,.29-1.3-12.73,16.84-1.71,1.26,12.35Z"/><path d="M480.7,249a3.47,3.47,0,0,0-1.74.67,3.9,3.9,0,0,0-1,3,6.22,6.22,0,0,0,.32,2.08,1.94,1.94,0,0,0,2,1.47,1.49,1.49,0,0,0,1.3-.75,8.17,8.17,0,0,0,.74-2.38l.39-1.84a10.79,10.79,0,0,1,1.23-3.7,4.11,4.11,0,0,1,3.63-1.78,4.84,4.84,0,0,1,3.8,1.6,7.06,7.06,0,0,1,1.59,4.88,7.54,7.54,0,0,1-1.35,4.65,5,5,0,0,1-4.06,2.06l-.06-3.39a2.43,2.43,0,0,0,2.14-1.4,4.39,4.39,0,0,0,.39-2.1,4,4,0,0,0-.57-2.22,1.76,1.76,0,0,0-1.56-.84,1.5,1.5,0,0,0-1.35.85,10,10,0,0,0-.65,2.26l-.67,3A7.41,7.41,0,0,1,484,258a4.12,4.12,0,0,1-3.43,1.57,4.86,4.86,0,0,1-3.88-1.73,7.42,7.42,0,0,1-1.63-5,8.43,8.43,0,0,1,1.43-5.31,5.06,5.06,0,0,1,4.12-2Z"/><path d="M491.5,278.63l-3-.2.34-5.05-13.9-.93.23-3.55,13.9.93.34-5.09,3,.19Z"/><path d="M488.71,295.92a4.29,4.29,0,0,1-1.41,1.4,4.75,4.75,0,0,1-1.54.62,5.09,5.09,0,0,1-1.8.05,5.31,5.31,0,0,1-2.25-1,3.44,3.44,0,0,1-1.32-2.23,3.16,3.16,0,0,1-1.56,1.43,5.49,5.49,0,0,1-2.71.07l-1.13-.15a6.72,6.72,0,0,0-1.56-.15,1.47,1.47,0,0,0-1.07.48l-.4-.05.59-3.86.91-.1a14.87,14.87,0,0,1,1.49.08l1.54.22a3.23,3.23,0,0,0,2.23-.22,3,3,0,0,0,.85-1.92l.49-3.41-6.53-1,.52-3.43,16.71,2.56-1.21,8A7.35,7.35,0,0,1,488.71,295.92Zm-1.37-7.59-4.49-.68-.59,3.75a4.5,4.5,0,0,0,0,1.72A1.88,1.88,0,0,0,484,294.4a2,2,0,0,0,2.17-.65,3.29,3.29,0,0,0,.55-1.58Z"/><path d="M486,311.32l-1,3.87-17.88,1.73.95-3.72,3.63-.25,1.5-6-3.08-2,.88-3.6Zm-10.17-2.77-1,4.2,7-.45Z"/><path d="M109.4,420.07a4,4,0,0,1,.35,1.93,4.82,4.82,0,0,1-1.3,3.13,5,5,0,0,1-2,1.29,3.31,3.31,0,0,1-2.59-.15,2.93,2.93,0,0,1,.3,2.08,5.32,5.32,0,0,1-1.41,2.27l-.77.82a8.54,8.54,0,0,0-1,1.21,1.34,1.34,0,0,0-.19,1.14l-.29.31-2.83-2.63c.18-.35.32-.61.44-.82a8.4,8.4,0,0,1,.86-1.15l1.06-1.18a3.14,3.14,0,0,0,1-1.93,2.76,2.76,0,0,0-1.1-1.77l-2.5-2.32L93,427.12l-2.52-2.32,11.42-12.3,5.89,5.47A8.07,8.07,0,0,1,109.4,420.07Zm-7-3.1-3.05,3.31,2.74,2.55a4,4,0,0,0,1.43.95,1.92,1.92,0,0,0,2-.71,2.14,2.14,0,0,0,.68-2.14,3.48,3.48,0,0,0-1-1.33Z"/><path d="M124.59,435.72l-7-5.45-2.21,2.82,6.46,5L120,440.39l-6.44-5L111,438.8l7.33,5.7-1.85,2.37-10-7.8,10.29-13.25,9.72,7.56Z"/><path d="M135.64,451a6.28,6.28,0,0,1-4.19-1.27l-2.94-1.9-3.3,5L122.3,451,131.45,437l6.05,3.93a5.68,5.68,0,0,1,2.61,3.24,5,5,0,0,1-.94,4.17A5.3,5.3,0,0,1,135.64,451Zm1.06-6.52a3,3,0,0,0-1.25-1.51l-2.65-1.71-2.7,4.14,2.65,1.73a2.7,2.7,0,0,0,1.88.5,2.58,2.58,0,0,0,1.62-1.23A2.37,2.37,0,0,0,136.7,444.5Z"/><path d="M147.09,446.82l3.15,1.68-4.84,9.07a5.77,5.77,0,0,0-.83,2.43,3.39,3.39,0,0,0,4.88,2.6,5.61,5.61,0,0,0,1.54-2.06l4.86-9.1,3.14,1.71-4.85,9.1a8.64,8.64,0,0,1-2.69,3.27c-1.77,1.12-3.94,1-6.51-.34s-3.85-3.11-3.93-5.21a9.14,9.14,0,0,1,1.23-4.08Zm11.62.8L154.07,449,152,447.9l3.52-2Z"/><path d="M175.56,462.37a4.19,4.19,0,0,1-.28,2.65,3.8,3.8,0,0,1-1.67,2,4,4,0,0,1-1.56.37,3.77,3.77,0,0,1,1.21,2.13,4.52,4.52,0,0,1-.34,2.52,5,5,0,0,1-3.34,2.93,5,5,0,0,1-2.08.05,10.66,10.66,0,0,1-2.27-.73l-7-2.92,6.52-15.46,7.46,3.14C174.12,459.87,175.23,461,175.56,462.37Zm-11.34,3.45L162.49,470l3.76,1.58a3.73,3.73,0,0,0,1.67.37,2.09,2.09,0,0,0,1.82-1.49,1.79,1.79,0,0,0-.3-2.08,3.83,3.83,0,0,0-1.43-.9Zm2.53-5.95-1.46,3.4,3.76,1.6a3.49,3.49,0,0,0,1.8.31,1.61,1.61,0,0,0,1.2-1.11,1.47,1.47,0,0,0-.23-1.77,6.65,6.65,0,0,0-1.72-1Z"/><path d="M183.19,463.27l3.36,1.07-4.25,13.11,8,2.57-.91,2.88L178,479.22Z"/><path d="M198.8,485.37l-3.38-.87,4.16-16.25,3.38.88Z"/><path d="M210.48,472.68a6.89,6.89,0,0,1,5.45-1.08c2.75.5,4.6,1.8,5.51,3.82a6.16,6.16,0,0,1,.58,3.3l-3.45-.62a4.81,4.81,0,0,0-.52-2,3.49,3.49,0,0,0-2.53-1.57,3.4,3.4,0,0,0-3.2,1,7.4,7.4,0,0,0-1.85,4.07,6.72,6.72,0,0,0,.34,4.38,3.6,3.6,0,0,0,2.6,1.9,3.24,3.24,0,0,0,2.93-.68,5.31,5.31,0,0,0,1.2-1.74l3.45.62a7.61,7.61,0,0,1-3.09,4,6.67,6.67,0,0,1-5,.83,7.13,7.13,0,0,1-5.12-3.32,11,11,0,0,1,2.68-12.9Z"/><path d="M233.42,474.43l4,.35,4.35,17.27-3.8-.36-.78-3.54-6.14-.57-1.45,3.32-3.66-.35Zm-1.2,10.34,4.27.43L235,478.42Z"/><path d="M267.17,475.65a5.68,5.68,0,0,1,2.93,2,7.94,7.94,0,0,1,1.3,2.66,14.94,14.94,0,0,1,.4,2.76,11,11,0,0,1-1.14,5.72,6,6,0,0,1-5.51,3.33l-7.23.25-.6-16.75,7.23-.28A8.68,8.68,0,0,1,267.17,475.65Zm-6.34,2.77.39,11,3.23-.11a3.48,3.48,0,0,0,3.37-2.57,8.65,8.65,0,0,0,.42-3.22,8,8,0,0,0-.93-3.91c-.57-.9-1.65-1.32-3.25-1.25Z"/><path d="M292,488.15a7.17,7.17,0,0,1-5.21,2.65,7.24,7.24,0,0,1-5.69-1.23c-1.88-1.36-3-3.55-3.44-6.55s.18-5.42,1.65-7.17a8.71,8.71,0,0,1,10.91-1.42q2.81,2,3.42,6.54C294,484,293.5,486.35,292,488.15Zm-2.51-2.25a8.27,8.27,0,0,0-1.11-8.65,3.93,3.93,0,0,0-3.48-1.1,4,4,0,0,0-3.1,2,6.86,6.86,0,0,0-.67,4.49,6.67,6.67,0,0,0,1.79,4.16,4.33,4.33,0,0,0,6.57-.85Z"/><path d="M308.86,469.18l4.93-1.15,3.77,16.35-3.17.75-2.57-11.05-.29-1.36c-.14-.57-.23-1-.31-1.32l.08,14.42-3.3.78-6.27-13c.07.32.17.78.31,1.35s.25,1,.32,1.33l2.57,11.05-3.19.75L298,471.69l5-1.14,6,12.15Z"/><path d="M327.93,481.19l-3.33,1-5-16,3.33-1Z"/><path d="M329,463.22l3.44-1.32,10.41,8.53-4.21-10.93,3-1.18L347.74,474l-3.27,1.28-10.68-8.66,4.3,11.1-3,1.19Z"/><path d="M357.43,469.52,354.26,471l-7.1-15.21,3.17-1.48Z"/><path d="M358.37,452.3a6.79,6.79,0,0,1,3.5-4.28q3.69-2.06,6.71-.55a6.06,6.06,0,0,1,2.51,2.2L368,451.35a4.94,4.94,0,0,0-1.62-1.18,3.59,3.59,0,0,0-3,.38,3.48,3.48,0,0,0-1.85,2.8,7.67,7.67,0,0,0,1.17,4.32,6.57,6.57,0,0,0,3,3.17,3.59,3.59,0,0,0,3.24-.19,3.29,3.29,0,0,0,1.82-2.38,5.08,5.08,0,0,0-.19-2.13l3.06-1.67a7.58,7.58,0,0,1,.15,5,6.79,6.79,0,0,1-3.35,3.8,7.16,7.16,0,0,1-6.06.68,9.42,9.42,0,0,1-4.86-4.61C358.18,456.79,357.76,454.44,358.37,452.3Z"/><path d="M377.33,439l3.27-2.23,14.32,10.58-3.12,2.14-2.86-2.24-5.11,3.45,1,3.5-3,2.05Zm5.66,8.77,3.56-2.39-5.46-4.31Z"/><path d="M389.55,430.4l2.85-2.33L405,432.92l-7.43-9.08,2.54-2,10.61,13L408,437l-12.8-4.9,7.53,9.23-2.52,2.06Z"/><path d="M408.14,414.27,411,411.5l16,7.85L424.24,422l-3.19-1.67-4.43,4.29,1.61,3.28-2.63,2.54Zm7.13,7.63,3.08-3-6.13-3.24Z"/><path d="M163.1,110.17h2.71l-4.27,12.5H159.1l-4.24-12.5h2.78l2.73,9.51Z"/><path d="M177.47,112.4h-6.6v2.65h6.06v2.18h-6.06v3.2h6.91v2.24h-9.47v-12.5h9.16Z"/><path d="M188.7,110.53a3.09,3.09,0,0,1,1.17.84,4.64,4.64,0,0,1,.61,1.06,3.84,3.84,0,0,1,.23,1.32,3.56,3.56,0,0,1-.45,1.74,2.46,2.46,0,0,1-1.47,1.23,2.37,2.37,0,0,1,1.21,1,4.07,4.07,0,0,1,.36,2v.84a8.42,8.42,0,0,0,.06,1.16,1.09,1.09,0,0,0,.49.72v.3H188c-.07-.27-.15-.5-.18-.65a5.77,5.77,0,0,1-.1-1.1l0-1.15a2.39,2.39,0,0,0-.4-1.6,2.2,2.2,0,0,0-1.49-.39h-2.55v4.89h-2.55v-12.5h6A5.62,5.62,0,0,1,188.7,110.53Zm-5.41,1.82v3.35h2.81a3.22,3.22,0,0,0,1.27-.18,1.48,1.48,0,0,0,.73-1.43,1.62,1.62,0,0,0-.71-1.51,2.67,2.67,0,0,0-1.22-.23Z"/><path d="M196.47,122.67h-2.61v-12.5h2.61Z"/><path d="M208.84,110.17v2.23h-3.72v10.27h-2.64V112.4h-3.75v-2.23Z"/><path d="M213.52,110.17h3l4.41,12.5h-2.85l-.79-2.54h-4.62l-.83,2.54h-2.75Zm-.15,7.77h3.19L215,113.05Z"/><path d="M225.24,118.82a2.64,2.64,0,0,0,.48,1.28,2.72,2.72,0,0,0,2.22.77,5.5,5.5,0,0,0,1.55-.19,1.47,1.47,0,0,0,1.11-1.45,1,1,0,0,0-.55-1,5.76,5.76,0,0,0-1.73-.59l-1.35-.31a7.78,7.78,0,0,1-2.74-.94,3.06,3.06,0,0,1-1.27-2.71,3.58,3.58,0,0,1,1.24-2.8,5.34,5.34,0,0,1,3.63-1.1,5.58,5.58,0,0,1,3.42,1.05,3.85,3.85,0,0,1,1.48,3h-2.54a1.72,1.72,0,0,0-1-1.58,3.34,3.34,0,0,0-1.56-.32,2.88,2.88,0,0,0-1.65.4,1.24,1.24,0,0,0-.62,1.12,1,1,0,0,0,.59,1,8.12,8.12,0,0,0,1.68.53l2.21.52a5.55,5.55,0,0,1,2.15.91,3.07,3.07,0,0,1,1.13,2.55,3.67,3.67,0,0,1-1.33,2.85A5.72,5.72,0,0,1,228,123a6.26,6.26,0,0,1-3.87-1.1,3.72,3.72,0,0,1-1.43-3.08Z"/><path d="M250.72,112.4h-6.6v2.65h6.08v2.18h-6.08v3.2h6.93v2.24h-9.49v-12.5h9.16Z"/><path d="M263,110.17v2.23h-3.75v10.27h-2.63V112.4H252.9v-2.23Z"/><path d="M273,118.82a2.37,2.37,0,0,0,.47,1.28,2.8,2.8,0,0,0,2.24.77,5.39,5.39,0,0,0,1.53-.19,1.45,1.45,0,0,0,1.1-1.45,1.1,1.1,0,0,0-.53-1,6.26,6.26,0,0,0-1.75-.59l-1.36-.31a7.79,7.79,0,0,1-2.73-.94,3.08,3.08,0,0,1-1.27-2.71,3.7,3.7,0,0,1,1.23-2.8,5.43,5.43,0,0,1,3.65-1.1,5.53,5.53,0,0,1,3.4,1.05,3.68,3.68,0,0,1,1.48,3h-2.51a1.75,1.75,0,0,0-1-1.58,3.24,3.24,0,0,0-1.55-.32,2.94,2.94,0,0,0-1.66.4,1.28,1.28,0,0,0-.59,1.12,1,1,0,0,0,.59,1,7.23,7.23,0,0,0,1.66.53l2.19.52a5.22,5.22,0,0,1,2.16.91,3.05,3.05,0,0,1,1.11,2.55,3.59,3.59,0,0,1-1.31,2.85A5.67,5.67,0,0,1,275.8,123a6.18,6.18,0,0,1-3.88-1.1,3.69,3.69,0,0,1-1.43-3.08Z"/><path d="M284.74,111.5a5.81,5.81,0,0,1,8.41.53,4.47,4.47,0,0,1,.85,2.32h-2.61a3.4,3.4,0,0,0-.65-1.35,2.51,2.51,0,0,0-2.05-.83,2.64,2.64,0,0,0-2.21,1.15,5.63,5.63,0,0,0-.8,3.26,4.94,4.94,0,0,0,.85,3.14,2.66,2.66,0,0,0,2.17,1,2.4,2.4,0,0,0,2-.89,3.63,3.63,0,0,0,.67-1.45H294a5.57,5.57,0,0,1-1.69,3.31,5,5,0,0,1-3.54,1.29,5.31,5.31,0,0,1-4.2-1.73,7.08,7.08,0,0,1-1.51-4.78A6.91,6.91,0,0,1,284.74,111.5Z"/><path d="M299.33,122.67h-2.59v-12.5h2.59Z"/><path d="M311.88,112.4h-6.61v2.65h6.08v2.18h-6.08v3.2h6.91v2.24h-9.46v-12.5h9.16Z"/><path d="M315,110.17h2.75l4.95,8.73v-8.73h2.43v12.5h-2.6l-5.09-8.84v8.84H315Z"/><path d="M337.57,110.17v2.23h-3.75v10.27h-2.63V112.4h-3.75v-2.23Z"/><path d="M342.35,122.67h-2.6v-12.5h2.6Z"/><path d="M349.23,110.17h2.93l4.43,12.5h-2.83l-.81-2.54h-4.6l-.86,2.54h-2.72Zm-.18,7.77h3.2l-1.59-4.89Z"/><path d="M233.06,436.85v-1.63a12.47,12.47,0,0,0,1.61-.17,2.33,2.33,0,0,0,1.17-.63,2.15,2.15,0,0,0,.49-.9,2.67,2.67,0,0,0,.1-.47h2v12.27h-2.49v-8.47Z"/><path d="M246.2,434.15a3.78,3.78,0,0,1,3-1.2,3.84,3.84,0,0,1,3.87,2.48,9.48,9.48,0,0,1,.58,3.69,10.3,10.3,0,0,1-.57,3.73,4,4,0,0,1-4,2.85,4.16,4.16,0,0,1-2.49-.83,3.37,3.37,0,0,1-1.27-2.4h2.43a1.19,1.19,0,0,0,.46.87,1.34,1.34,0,0,0,1,.36,1.73,1.73,0,0,0,1.69-1.32,8.56,8.56,0,0,0,.33-2.13,2.91,2.91,0,0,1-.72.65,3.33,3.33,0,0,1-1.65.4,3.84,3.84,0,0,1-2.61-1,3.68,3.68,0,0,1-1.14-2.89A4.61,4.61,0,0,1,246.2,434.15Zm4.06,4.9a2,2,0,0,0,.83-1.85,2.57,2.57,0,0,0-.49-1.63,1.56,1.56,0,0,0-1.33-.63,1.64,1.64,0,0,0-1,.36,2.16,2.16,0,0,0-.7,1.85,2.47,2.47,0,0,0,.44,1.62,1.59,1.59,0,0,0,1.35.55A1.83,1.83,0,0,0,250.26,439.05Z"/><path d="M263.59,436.12a1.12,1.12,0,0,0-.22-.64,1.3,1.3,0,0,0-1.17-.59,1.74,1.74,0,0,0-1.68,1.34,9.24,9.24,0,0,0-.38,2.14,2.92,2.92,0,0,1,1.06-.77,3.69,3.69,0,0,1,1.35-.25,3.51,3.51,0,0,1,2.67,1.12,3.91,3.91,0,0,1,1,2.83,5,5,0,0,1-1,3.05,3.79,3.79,0,0,1-3.18,1.29,3.65,3.65,0,0,1-3.42-1.92,7.85,7.85,0,0,1-.87-3.92,20.61,20.61,0,0,1,.11-2.31,7.37,7.37,0,0,1,.84-2.6,4.11,4.11,0,0,1,1.36-1.42,3.62,3.62,0,0,1,2.05-.55,4.07,4.07,0,0,1,2.72.87,3.29,3.29,0,0,1,1.14,2.33Zm-2.86,6.93a1.69,1.69,0,0,0,1.37.62,1.51,1.51,0,0,0,1.27-.6,2.61,2.61,0,0,0,.46-1.57,2.47,2.47,0,0,0-.53-1.65,1.71,1.71,0,0,0-1.27-.57,1.74,1.74,0,0,0-1.1.37,2.15,2.15,0,0,0-.74,1.8A2.38,2.38,0,0,0,260.73,443.05Z"/><path d="M271.05,442.92a6.76,6.76,0,0,1,2.44-2.6,17.53,17.53,0,0,0,2.15-1.72,2.51,2.51,0,0,0,.76-1.75,2.05,2.05,0,0,0-.43-1.3,1.55,1.55,0,0,0-1.25-.52,1.51,1.51,0,0,0-1.5.82,4.48,4.48,0,0,0-.28,1.5H270.6a6.24,6.24,0,0,1,.58-2.52,3.55,3.55,0,0,1,3.43-1.86,4.24,4.24,0,0,1,3.11,1.1,3.71,3.71,0,0,1,1.15,2.85,3.87,3.87,0,0,1-.83,2.43,7.41,7.41,0,0,1-1.75,1.55l-1,.7c-.61.42-1,.75-1.23.93a3.37,3.37,0,0,0-.58.67h5.37v2.12h-8.43A5.63,5.63,0,0,1,271.05,442.92Z"/><path class="c" d="M205.12,206.22l-.39,190.13c-48.14-32.48-48.83-72-48.83-82.72V206.22Z"/><polygon class="d" points="155.5 206.22 155.5 127.53 356.12 127.53 356.12 206.25 155.5 206.22"/><path class="d" d="M257.14,328.18v-8.44h99c-2.89,59.71-66.64,99-99,99Z"/><rect class="e" x="257.14" y="206.22" width="98.98" height="99"/><path class="d" d="M205.46,226.92l-3.37,4.23c-4.33,2.52-6.44,5.28-8,10.07-1,3-.57,8.1-.57,8.1h6.25v9.46h-9.1a3.66,3.66,0,0,1-1.7-3.94,3.48,3.48,0,0,1,1.7-2.27,6.74,6.74,0,0,0-8.22,3,6,6,0,0,0-.56,5.5,11.44,11.44,0,0,0-6.23,2.28,9.59,9.59,0,0,0-3.14,2.92,10.71,10.71,0,0,0,3.14,3.25,10.29,10.29,0,0,0,6.23,2.28,6.05,6.05,0,0,0,.56,5.53,6.75,6.75,0,0,0,8.22,2.92,3.48,3.48,0,0,1-1.7-2.28,3.59,3.59,0,0,1,1.7-3.89h9.1v14.3H188.45l17,85.14,17-85.14H211.15V274h9.08a3.5,3.5,0,0,1,1.69,3.89,3.29,3.29,0,0,1-1.69,2.28,6.73,6.73,0,0,0,8.23-2.92,6,6,0,0,0,.56-5.53,10.28,10.28,0,0,0,6.24-2.28,10.6,10.6,0,0,0,3.14-3.25,9.3,9.3,0,0,0-3.14-2.92A11.44,11.44,0,0,0,229,261a5.91,5.91,0,0,0-.56-5.5,6.74,6.74,0,0,0-8.23-3,3.38,3.38,0,0,1,1.69,2.27,3.56,3.56,0,0,1-1.69,3.94h-9.08v-9.46h6.25s.39-5.07-.58-8.1a15.81,15.81,0,0,0-7.93-10.07Z"/><path class="c" d="M214,181.94l124.81-47.76,2,4.94L215.35,186.48c5.37,1.31,7.88,11.21,1.57,14.09-9.63,4.41-12-5.74-9.82-10.62.1,6.28-11.1,13.78-15.65,3.57s9.25-13.81,13.51-9.12c-5.51-2.18-7.26-12.47-.07-15.22C214.74,165.38,217.59,177,214,181.94Z"/><path d="M212.6,202.75a6.64,6.64,0,0,1-5-2.13,9.54,9.54,0,0,1-2.15-4.52,10.58,10.58,0,0,1-7.46,3.52c-3.23,0-5.92-2-7.54-5.65-1.76-4-.86-6.76.18-8.4,1.82-2.8,5.72-4.49,9.63-4.27a10.76,10.76,0,0,1-1-7,8.23,8.23,0,0,1,5.25-6.15c4.78-1.83,8.87-.45,10.88,3.53a11.61,11.61,0,0,1,.7,8.29l123.31-47.2,2.78,7L218.05,186.62a10,10,0,0,1,3.62,6.9c.35,3.65-1.25,6.65-4.3,8A11.71,11.71,0,0,1,212.6,202.75Zm-5.15-9.55a8.17,8.17,0,0,0,1.76,5.94c1.6,1.74,4.12,1.88,7.26.46a5.58,5.58,0,0,0,3.05-5.88c-.29-3-2.19-5.65-4.43-6.19l-3.4-.84,127.65-48.2-1.17-2.91-127.26,48.7,2.16-2.95a9.09,9.09,0,0,0,.37-8.7,5.34,5.34,0,0,0-4.92-3.14,9.28,9.28,0,0,0-3.25.68,6,6,0,0,0-3.87,4.55,8.42,8.42,0,0,0,2,7.28,7.13,7.13,0,0,1,2.4,1.65l-1.2,1.74a7.18,7.18,0,0,1-2.4-1.52,7.67,7.67,0,0,0-2.69-.42c-3,0-5.74,1.27-7,3.3-1.14,1.72-1.14,3.87-.05,6.32,1.27,2.88,3.21,4.38,5.56,4.38a9,9,0,0,0,7.31-4.82,9.92,9.92,0,0,1,.81-3.13l2.08.42A7.46,7.46,0,0,1,207.45,193.2Z"/><polygon class="c" points="329.08 143.68 335.94 152.6 338.12 158.25 334.4 159.68 332.24 154.03 328.99 155.25 331.16 160.9 327.23 162.43 325.18 157.08 320.99 158.68 323.07 164.02 319.12 165.53 317.06 160.2 313.37 161.62 315.4 166.95 312.16 168.19 309.74 161.93 308.23 151.7 329.08 143.68"/><path d="M311.55,169.6l-2.8-7.28L307,151l22.41-8.63L337,152.2l2.55,6.66-5.73,2.21-2.17-5.64-1.22.44,2.16,5.66-6,2.29-2.05-5.34-2.16.83,2.07,5.34-6,2.27-2.05-5.32-1.67.65,2.05,5.32Zm-2.12-17.2,1.4,9.38,2,5,1.21-.47L312,161l5.73-2.22,2.05,5.36,1.89-.74-2.05-5.34,6.21-2.37,2,5.34,1.92-.75-2.17-5.64,5.27-2,2.19,5.65,1.68-.66-1.74-4.5L328.73,145Z"/><path class="a" d="M295.79,181.94,171,134.18l-2,4.94L294.4,186.48c-5.37,1.31-7.87,11.21-1.57,14.09,9.62,4.41,12-5.74,9.79-10.62-.09,6.28,11.14,13.78,15.67,3.57s-9.25-13.81-13.53-9.12c5.52-2.18,7.29-12.47.09-15.22C295,165.38,292.17,177,295.79,181.94Z"/><path d="M297.13,202.75a11.83,11.83,0,0,1-4.77-1.18c-3-1.4-4.63-4.4-4.29-8a9.93,9.93,0,0,1,3.62-6.9L167.57,139.74l2.78-7L293.65,180a11.56,11.56,0,0,1,.7-8.29c2-4,6.12-5.36,10.89-3.53a8.2,8.2,0,0,1,5.24,6.15,10.76,10.76,0,0,1-1,7c3.9-.25,7.8,1.47,9.62,4.25,1.05,1.66,2,4.45.2,8.42-1.62,3.66-4.32,5.65-7.57,5.65a10.56,10.56,0,0,1-7.45-3.52,9.44,9.44,0,0,1-2.14,4.52A6.71,6.71,0,0,1,297.13,202.75ZM170.4,138.49,298,186.69l-3.4.84c-2.24.54-4.13,3.19-4.42,6.19-.12,1.28-.08,4.45,3,5.88s5.67,1.28,7.27-.46a8.3,8.3,0,0,0,1.75-5.94,7.24,7.24,0,0,1-.73-3.28l2.08-.42a10.19,10.19,0,0,1,.77,3.13c1.44,2.74,4.56,4.82,7.32,4.82,2.38,0,4.31-1.5,5.58-4.38,1.09-2.45,1.09-4.6-.05-6.32-1.3-2-4.06-3.3-7-3.3a7.54,7.54,0,0,0-2.66.42,7.49,7.49,0,0,1-2.4,1.52L304,183.65a6.76,6.76,0,0,1,2.38-1.65,8.58,8.58,0,0,0,2-7.28,6.15,6.15,0,0,0-3.89-4.55,9.46,9.46,0,0,0-3.25-.68,5.33,5.33,0,0,0-4.92,3.14c-1.37,2.72-1.22,6.51.37,8.7l2.15,2.95-127.25-48.7Z"/><polygon class="a" points="180.66 143.68 173.79 152.6 171.62 158.25 175.31 159.68 177.5 154.03 180.74 155.25 178.56 160.9 182.51 162.43 184.54 157.08 188.73 158.68 186.67 164.02 190.61 165.53 192.67 160.2 196.38 161.62 194.33 166.95 197.59 168.19 200 161.93 201.51 151.7 180.66 143.68"/><path d="M198.19,169.6l-5.27-2,2.06-5.32-1.68-.65-2.06,5.32-6-2.27,2.07-5.34-2.14-.83-2.06,5.34-6-2.29,2.18-5.66-1.22-.44L176,161.07l-5.73-2.21,2.7-6.93,7.38-9.56L202.7,151l-1.63,11.08Zm-2.46-3.28,1.22.47,2-5.26,1.35-9.13L181,145l-6.26,8.15-1.73,4.5,1.67.66,2.18-5.65,5.28,2L180,160.27l1.93.75,2-5.34,6.21,2.37-2.06,5.34,1.92.74,2.06-5.36,5.74,2.22Z"/><polygon class="f" points="254.36 150.67 254.36 145.72 250.49 145.72 250.49 142.13 254.36 142.13 254.36 138.37 257.97 138.37 257.97 142.13 262.1 142.13 262.13 145.75 257.97 145.75 257.97 150.67 254.36 150.67"/><path d="M259,151.75h-5.75v-4.94H249.4V141h3.89V137.3h5.78V141h4.11l0,5.83H259Zm-3.6-2.17h1.44v-4.9H261v-1.49H256.9v-3.71h-1.46v3.71h-3.87v1.44h3.87Z"/><path class="c" d="M239.73,192.72l-5.42-33.1L232.65,151c.95-.44,2.4,4.61,3.28,4.23,7-3,12.41-3.94,20.75-3.94,8.15,0,13.46.9,20.29,3.75,1,.43,2.1-4.56,3.19-4l-6.51,41.68a43.41,43.41,0,0,0-33.92,0Z"/><path d="M274.49,194.26l-1.27-.54a42.32,42.32,0,0,0-33.1,0l-1.25.54-5.64-34.46-1.81-9.38,1.35-.49c1.13,0,1.76,1.24,2.55,2.79.2.4.49.95.71,1.34,6.66-2.81,12.16-3.8,20.65-3.8s13.74,1,20.22,3.61c.2-.35.44-.87.62-1.21.67-1.49,1.27-2.73,2.47-2.73h.26l1.11.47Zm-39.82-38.44.7,3.61,5.19,31.77a37.65,37.65,0,0,1,16.12-3,38,38,0,0,1,16.11,3l5.58-35.62a1.6,1.6,0,0,1-1.27.62l-.53-.09c-6.43-2.7-11.63-3.65-19.89-3.65-8.49,0-13.63.95-20.33,3.85l-.52.09A1.56,1.56,0,0,1,234.67,155.82Z"/><path d="M277.77,165.58c-5.71-2.43-14.76-5.26-21.54-5.26a60.17,60.17,0,0,0-21.18,4.6l-.86-2a61.68,61.68,0,0,1,22-4.77c7.1,0,16.5,2.92,22.4,5.42Z"/><path d="M275.13,180.1a48.26,48.26,0,0,0-18.9-4.27A44.32,44.32,0,0,0,238,179.77l-.85-2a45.67,45.67,0,0,1,19.06-4.11A50.84,50.84,0,0,1,276,178.08Z"/><polygon points="240.46 161.93 239.42 159.43 239.93 157.49 241.69 158.5 242.77 161.1 244.78 160.27 243.4 156.97 238.55 154.24 237.14 159.57 238.47 162.77 240.46 161.93"/><polygon points="249.63 159.68 249.23 156.94 250.4 155.05 252.09 156.55 252.52 159.37 254.66 159.07 254.15 155.43 249.87 151.7 246.96 156.47 247.47 159.97 249.63 159.68"/><polygon points="260 156.72 261.72 155.12 263.01 157.18 262.59 160.16 264.73 160.45 265.27 156.68 262.14 151.77 257.94 155.68 257.43 159.28 259.57 159.57 260 156.72"/><polygon points="270.55 158.32 272.38 157.35 272.94 159.4 271.8 162.03 273.77 162.9 275.25 159.57 273.75 154.17 268.86 156.75 267.44 159.95 269.43 160.83 270.55 158.32"/><polygon points="269.49 176.17 271.54 176.88 273.05 172.46 274.98 170.48 275.37 173.24 273.82 177.83 275.86 178.52 277.59 173.44 276.52 165.83 271.33 171.1 269.49 176.17"/><polygon points="268.39 176.51 269.67 171.05 267.77 163.3 262.92 169.25 261.52 174.69 263.64 175.2 264.76 170.42 266.69 168.04 267.44 171.07 266.29 176.02 268.39 176.51"/><polygon points="253.4 174.38 255.56 174.44 255.73 169.63 257.04 167.05 258.3 169.72 258.13 174.72 260.29 174.8 260.47 169.27 257.17 162.1 253.66 168.86 253.4 174.38"/><polygon points="245.3 175.83 247.44 175.43 246.57 170.64 247.42 167.68 249.35 170.17 250.26 175.15 252.39 174.75 251.43 169.49 246.5 162.97 244.35 170.55 245.3 175.83"/><polygon points="239.19 177.63 237.86 172.87 238.37 169.92 240.45 172.17 241.82 177.1 243.89 176.51 242.44 171.35 236.98 165.17 235.64 173 237.1 178.19 239.19 177.63"/><polygon points="240.09 179.72 238.32 186.93 239.6 191.77 241.69 191.23 240.56 186.9 241.26 184.07 243.34 186.2 244.49 190.67 246.61 190.15 245.29 185.1 240.09 179.72"/><polygon points="250.62 177.5 247.8 184.28 248.32 189.19 250.49 188.98 250.02 184.61 251.15 181.93 252.86 184.3 253.38 188.85 255.53 188.63 254.96 183.5 250.62 177.5"/><polygon points="258.23 183.77 257.87 188.56 260.02 188.72 260.35 184.5 261.92 182.12 263.2 184.72 262.86 189.13 265.04 189.3 265.4 184.28 262.21 177.78 258.23 183.77"/><polygon points="268.52 185.47 267.31 190.07 269.39 190.62 270.46 186.58 272.45 184.58 273.22 187.32 272.12 191.53 274.23 192.07 275.5 187.3 273.49 180.43 268.52 185.47"/><path d="M154.42,126.45v188c0,63.35,73.1,105.35,102.72,105.35,35.16,0,100.09-42.9,100.09-104V126.45Zm200.63,2.17v76.53H156.59V128.62ZM355,318.68H258.23V306.22h96.82v9.55C355.05,316.75,355,317.69,355,318.68ZM190.42,273l-.27.15a4.59,4.59,0,0,0-2.18,5,3.52,3.52,0,0,0,.53,1.41,5.65,5.65,0,0,1-5.08-2.82,4.94,4.94,0,0,1-.46-4.64l.43-1.29-1.4-.11a9.52,9.52,0,0,1-5.68-2.08,9.38,9.38,0,0,1-2.41-2.37,9.38,9.38,0,0,1,2.4-2,10.21,10.21,0,0,1,5.72-2.07l1.36-.16L183,260.7a4.91,4.91,0,0,1,.47-4.63,5.42,5.42,0,0,1,5.07-2.82,3.59,3.59,0,0,0-.53,1.4,4.61,4.61,0,0,0,2.19,5l.26.16h10.47V248.25h-6.3a22.83,22.83,0,0,1,.57-6.7c1.47-4.62,3.44-7.11,7.46-9.48l2.84-3.42,2.58,3.18.3.24a14.88,14.88,0,0,1,7.46,9.45,23.82,23.82,0,0,1,.57,6.73h-6.31v11.59h10.49l.24-.16a4.65,4.65,0,0,0,2.21-5,4.31,4.31,0,0,0-.53-1.4,5.65,5.65,0,0,1,5.07,2.82,5,5,0,0,1,.46,4.63l-.4,1.27,1.32.16a10.54,10.54,0,0,1,5.93,2.19,9.41,9.41,0,0,1,2.22,1.9,8.73,8.73,0,0,1-2.43,2.37,9.49,9.49,0,0,1-5.67,2.08l-1.39.11.42,1.29a5,5,0,0,1-.46,4.64,5.83,5.83,0,0,1-5.07,2.82,4.46,4.46,0,0,0,.53-1.41,4.57,4.57,0,0,0-2.21-5l-.24-.15H210.06v16.48h11.12l-15.72,78.49-15.7-78.49h11.13V273Zm16.15,100.63,17.26-86.33H212.24V275.12h7.66a2.42,2.42,0,0,1,1,2.6c-.12.66-.4,1-1.25,1.57l-1.77,1.2,2,.73a7.89,7.89,0,0,0,9.52-3.37,6.82,6.82,0,0,0,1-5.13,11.64,11.64,0,0,0,5.5-2.35,11.38,11.38,0,0,0,3.39-3.55l.41-.6-.41-.57a9.93,9.93,0,0,0-3.39-3.23,12.69,12.69,0,0,0-5.5-2.33,6.92,6.92,0,0,0-1-5.14,7.86,7.86,0,0,0-9.53-3.37l-2,.69,1.75,1.2c.85.58,1.13.93,1.25,1.58a2.44,2.44,0,0,1-1,2.63h-7.66v-7.25h6.16l.07-1c0-.22.4-5.35-.6-8.54a17.22,17.22,0,0,0-8.26-10.58l-3-3.77v-19.2h49.5v210.3c-12.24-.43-31.31-7.61-49.5-20.26Zm51.66-69.53V207.33h96.82v96.72ZM156.59,314.47V207.33H204.4v19.2l-3,3.77c-4.41,2.65-6.66,5.53-8.28,10.58-1,3.19-.63,8.32-.6,8.54l0,1h6.17v7.25h-7.66a2.51,2.51,0,0,1-1-2.63c.12-.65.4-1,1.26-1.58l1.74-1.2-2-.69a7.85,7.85,0,0,0-9.53,3.37,6.88,6.88,0,0,0-1,5.14,13.37,13.37,0,0,0-5.69,2.46,9.32,9.32,0,0,0-3.21,3.1l-.39.57.39.6a12.06,12.06,0,0,0,3.39,3.55,11.8,11.8,0,0,0,5.51,2.35,6.82,6.82,0,0,0,1,5.13,7.88,7.88,0,0,0,9.53,3.37l2-.73-1.8-1.2c-.83-.57-1.11-.91-1.23-1.57a2.39,2.39,0,0,1,1-2.6h7.64v12.13H187.13l17.27,86.33v22.3C179.34,377.8,156.59,349.47,156.59,314.47ZM258.23,417.63V320.82h96.64C351.47,377.4,291.85,416.8,258.23,417.63Z"/></svg>